<svg width="18" height="18" viewBox="0 0 18 18" fill="none" xmlns="http://www.w3.org/2000/svg">
<g id="play 1">
<path id="Vector" fill-rule="evenodd" clip-rule="evenodd" d="M1.5 9.00435C1.5 4.86469 4.86631 1.5 9 1.5C13.1337 1.5 16.5 4.86469 16.5 9.00435C16.5 13.1353 13.1337 16.5 9 16.5C4.86631 16.5 1.5 13.1353 1.5 9.00435ZM11.751 9.76335C11.8306 9.68377 11.932 9.56077 11.9536 9.53183C12.0695 9.37987 12.1274 9.19178 12.1274 9.00435C12.1274 8.79375 12.0622 8.59838 11.9392 8.43923C11.9291 8.4291 11.9093 8.40765 11.8836 8.3796C11.8355 8.32725 11.7664 8.25195 11.7003 8.18595C11.1067 7.5492 9.5574 6.50723 8.74665 6.18886C8.62358 6.13893 8.31225 6.02967 8.14575 6.02243C7.98645 6.02243 7.83442 6.05861 7.68968 6.13097C7.5087 6.23228 7.3639 6.39146 7.28427 6.57959C7.23359 6.70984 7.15396 7.10058 7.15396 7.10782C7.07432 7.53472 7.03089 8.22938 7.03089 8.9964C7.03089 9.72795 7.07432 10.3929 7.13948 10.8271C7.14127 10.8289 7.1475 10.8599 7.15718 10.9081C7.18658 11.0548 7.24785 11.3603 7.31323 11.4855C7.47249 11.7894 7.7838 11.9776 8.1168 11.9776H8.14575C8.36295 11.9703 8.81903 11.7822 8.81903 11.775C9.58643 11.4565 11.0994 10.4653 11.7075 9.80678L11.751 9.76335Z" fill="white"/>
</g>
</svg>
