<svg width="80" height="80" viewBox="0 0 80 80" fill="none" xmlns="http://www.w3.org/2000/svg">
<g id="play 1">
<path id="Vector" fill-rule="evenodd" clip-rule="evenodd" d="M6.66669 40.0194C6.66669 21.6209 21.6281 6.66669 40 6.66669C58.372 6.66669 73.3334 21.6209 73.3334 40.0194C73.3334 58.379 58.372 73.3334 40 73.3334C21.6281 73.3334 6.66669 58.379 6.66669 40.0194ZM52.2267 43.3927C52.5804 43.039 53.031 42.4924 53.1274 42.3637C53.6424 41.6884 53.8997 40.8524 53.8997 40.0194C53.8997 39.0834 53.61 38.215 53.063 37.5077C53.0184 37.4627 52.9304 37.3674 52.816 37.2427C52.602 37.01 52.295 36.6754 52.0014 36.382C49.363 33.552 42.4774 28.9211 38.874 27.5061C38.327 27.2842 36.9434 26.7986 36.2034 26.7664C35.4954 26.7664 34.8197 26.9272 34.1764 27.2488C33.372 27.699 32.7285 28.4065 32.3746 29.2427C32.1493 29.8215 31.7954 31.5582 31.7954 31.5903C31.4415 33.4877 31.2484 36.575 31.2484 39.984C31.2484 43.2354 31.4415 46.1907 31.7311 48.1204C31.739 48.1284 31.7667 48.2664 31.8097 48.4807C31.9404 49.1324 32.2127 50.4904 32.5033 51.0467C33.2111 52.3974 34.5947 53.2337 36.0747 53.2337H36.2034C37.1687 53.2014 39.1957 52.3654 39.1957 52.3334C42.6064 50.918 49.3307 46.5124 52.0334 43.5857L52.2267 43.3927Z" fill="#865DFF"/>
</g>
</svg>
